<?xml version="1.0" encoding="UTF-8" standalone="no"?><!DOCTYPE svg PUBLIC "-//W3C//DTD SVG 1.1//EN" "http://www.w3.org/Graphics/SVG/1.1/DTD/svg11.dtd"><svg width="100%" height="100%" viewBox="0 0 871 312" version="1.1" xmlns="http://www.w3.org/2000/svg" xmlns:xlink="http://www.w3.org/1999/xlink" xml:space="preserve" xmlns:serif="http://www.serif.com/" style="fill-rule:evenodd;clip-rule:evenodd;stroke-linejoin:round;stroke-miterlimit:2;"><path d="M151.258,159.347c-0,-16.727 -11.153,-27.21 -26.54,-27.21c-15.389,0 -26.541,10.483 -26.541,27.21c-0,16.727 11.152,27.207 26.541,27.207c15.387,0 26.54,-10.48 26.54,-27.207Zm33.449,-0c0,33.228 -24.084,58.876 -53.298,58.876c-14.942,-0 -25.875,-5.13 -33.232,-13.604l-0,55.085l-33.45,0l0,-156.112l33.45,-0l-0,10.48c7.357,-8.472 18.29,-13.604 33.232,-13.604c29.214,0 53.298,25.65 53.298,58.879Z" style="fill:#fff;fill-rule:nonzero;"/><path d="M285.57,159.347c-0,-16.727 -11.151,-27.21 -26.537,-27.21c-15.389,0 -26.539,10.483 -26.539,27.21c-0,16.727 11.15,27.207 26.539,27.207c15.386,0 26.537,-10.48 26.537,-27.207Zm33.456,-55.755l0,111.51l-33.456,-0l-0,-10.483c-7.359,8.474 -18.286,13.604 -33.231,13.604c-29.218,-0 -53.297,-25.648 -53.297,-58.876c-0,-33.229 24.079,-58.879 53.297,-58.879c14.945,0 25.872,5.132 33.231,13.604l-0,-10.48l33.456,-0Z" style="fill:#fff;fill-rule:nonzero;"/><path d="M411.753,101.362l0,37.913c-13.829,-2.232 -33.456,3.345 -33.456,25.425l0,50.402l-33.452,-0l0,-111.51l33.452,-0l0,19.85c4.459,-14.944 19.404,-22.08 33.456,-22.08Z" style="fill:#fff;fill-rule:nonzero;"/><path d="M473.427,135.707l0,39.475c0,9.589 8.253,10.481 22.974,9.589l-0,30.331c-43.711,4.459 -56.423,-8.698 -56.423,-39.92l-0,-39.475l-17.84,0l0,-32.115l17.84,-0l-0,-21.187l33.449,-10.038l0,31.225l22.974,-0l-0,32.115l-22.974,0Z" style="fill:#fff;fill-rule:nonzero;"/><path d="M518.761,103.592l33.451,-0l0,111.51l-33.451,-0l-0,-111.51Zm-3.347,-29.886c0,-10.928 9.144,-20.072 20.076,-20.072c10.925,0 20.069,9.144 20.069,20.072c0,10.927 -9.144,20.071 -20.069,20.071c-10.932,0 -20.076,-9.144 -20.076,-20.071Z" style="fill:#fff;fill-rule:nonzero;"/><path d="M571.124,159.347c-0,-33.229 25.205,-58.879 59.104,-58.879c21.633,0 40.808,11.376 50.4,28.548l-29.216,16.948c-3.789,-7.806 -11.821,-12.489 -21.633,-12.489c-14.495,0 -25.199,10.485 -25.199,25.872c-0,15.386 10.704,25.869 25.199,25.869c9.812,-0 18.063,-4.683 21.633,-12.489l29.216,16.729c-9.592,17.393 -28.548,28.767 -50.4,28.767c-33.899,-0 -59.104,-25.648 -59.104,-58.876Z" style="fill:#fff;fill-rule:nonzero;"/><rect x="696.769" y="52.296" width="33.452" height="162.806" style="fill:#fff;fill-rule:nonzero;"/><path d="M806.273,159.347c-0,-16.727 -11.151,-27.21 -26.535,-27.21c-15.389,0 -26.544,10.483 -26.544,27.21c0,16.727 11.155,27.207 26.544,27.207c15.384,0 26.535,-10.48 26.535,-27.207Z" style="fill:#fff;fill-rule:nonzero;"/></svg>