<?xml version="1.0" encoding="UTF-8" standalone="no"?><!DOCTYPE svg PUBLIC "-//W3C//DTD SVG 1.1//EN" "http://www.w3.org/Graphics/SVG/1.1/DTD/svg11.dtd"><svg width="4267px" height="4267px" version="1.1" xmlns="http://www.w3.org/2000/svg" xmlns:xlink="http://www.w3.org/1999/xlink" xml:space="preserve" xmlns:serif="http://www.serif.com/" style="fill-rule:evenodd;clip-rule:evenodd;stroke-linejoin:round;stroke-miterlimit:2;"><g transform="matrix(4.16667,0,0,4.16667,0,0)"><g transform="matrix(1.15056,0,0,1.16762,0,0)"><g id="Background"><rect x="0" y="0" width="890" height="877" style="fill:#e8eef2;"/></g></g><g id="particl_logo_emblem" transform="matrix(0.674935,0,0,0.674935,1060.38,512)"><g transform="matrix(1,0,0,1,-1289.58,-477.083)"><g transform="matrix(4.16667,0,0,4.16667,0,0)"><path d="M142.431,143.123L85.907,143.123L85.907,86.337L142.431,86.337L142.431,143.123ZM227.717,48.089C225.38,34.568 217.947,21.766 207.162,13.25C197.153,5.018 184.327,0.595 171.388,0.584C133.014,0.572 94.605,0.538 56.231,0.595C36.201,0.823 17.276,12.417 7.528,29.837C2.113,39.186 0.084,49.696 0.073,60.413C0.095,95.367 0.061,130.344 0.084,165.296C0.016,173.425 0.369,181.234 2.911,189.032C8.566,207.102 23.82,221.729 42.038,226.825C36.531,222.436 34.091,216.325 32.302,209.713C28.597,195.212 28.312,180.151 28.904,165.296C28.847,130.332 28.927,95.367 28.859,60.413C28.916,54.394 29.36,48.739 32.439,43.415C37.181,34.921 46.427,29.244 56.231,29.37C92.701,29.347 129.216,29.381 165.687,29.358C171.194,29.37 176.199,28.959 181.466,30.954C190.221,33.861 197.164,41.693 199.079,50.7C200.162,55.99 199.877,61.861 199.889,67.254L199.889,169.857C199.889,174.896 199.33,179.821 197.164,184.426C192.695,193.775 183.027,200.262 172.55,200.068C143.685,200.113 114.784,200.057 85.918,200.091C85.861,190.685 85.873,181.269 85.907,171.852C109.472,171.852 133.025,171.817 156.59,171.875C161.663,172.149 167.5,169.583 169.837,164.909C171.16,162.526 171.376,159.984 171.433,157.328C171.41,128.816 171.422,100.315 171.422,71.802C171.65,66.524 169.096,61.815 164.422,59.307C160.523,57.039 156.351,57.62 152.007,57.54C125.033,57.608 98.025,57.506 71.063,57.597C63.345,57.403 56.915,64.118 57.155,71.802C57.041,112.763 57.155,153.953 57.098,194.938C57.314,203.078 57.052,210.796 61.772,217.841C65.352,223.667 71.405,226.62 77.915,227.908C85.61,229.151 92.975,228.854 100.705,228.865C124.27,228.877 147.823,228.854 171.388,228.888C183.107,228.991 194.519,225.194 204.141,218.571C214.458,210.967 222.461,200.479 226.144,188.12C228.686,179.764 228.641,171.647 228.686,163.017C228.686,130.332 228.698,97.658 228.686,64.973C228.641,59.364 228.583,53.641 227.717,48.089Z" style="fill:#d5fbf2;fill-rule:nonzero;"/></g></g></g></g></svg>