<?xml version="1.0" encoding="UTF-8" standalone="no"?><!DOCTYPE svg PUBLIC "-//W3C//DTD SVG 1.1//EN" "http://www.w3.org/Graphics/SVG/1.1/DTD/svg11.dtd"><svg width="3630px" height="1300px" version="1.1" xmlns="http://www.w3.org/2000/svg" xmlns:xlink="http://www.w3.org/1999/xlink" xml:space="preserve" xmlns:serif="http://www.serif.com/" style="fill-rule:evenodd;clip-rule:evenodd;stroke-linejoin:round;stroke-miterlimit:2;"><g transform="matrix(4.16667,0,0,4.16667,0,0)"><g transform="matrix(2.16895,0,0,2.16895,64.7271,51.4846)"><path d="M39.895,49.73C39.895,42.018 34.753,37.185 27.659,37.185C20.564,37.185 15.422,42.018 15.422,49.73C15.422,57.442 20.564,62.274 27.659,62.274C34.753,62.274 39.895,57.442 39.895,49.73ZM55.317,49.73C55.317,65.05 44.213,76.875 30.744,76.875C23.855,76.875 18.814,74.51 15.422,70.603L15.422,96L0,96L0,24.024L15.422,24.024L15.422,28.856C18.814,24.95 23.855,22.584 30.744,22.584C44.213,22.584 55.317,34.41 55.317,49.73Z" style="fill:#fff;fill-rule:nonzero;"/></g><g transform="matrix(2.16895,0,0,2.16895,64.7271,51.4846)"><path d="M101.82,49.73C101.82,42.018 96.679,37.185 89.585,37.185C82.49,37.185 77.349,42.018 77.349,49.73C77.349,57.442 82.49,62.274 89.585,62.274C96.679,62.274 101.82,57.442 101.82,49.73ZM117.245,24.024L117.245,75.436L101.82,75.436L101.82,70.603C98.427,74.51 93.389,76.875 86.499,76.875C73.028,76.875 61.926,65.05 61.926,49.73C61.926,34.41 73.028,22.584 86.499,22.584C93.389,22.584 98.427,24.95 101.82,28.856L101.82,24.024L117.245,24.024Z" style="fill:#fff;fill-rule:nonzero;"/></g><g transform="matrix(2.16895,0,0,2.16895,64.7271,51.4846)"><path d="M159.997,22.996L159.997,40.476C153.621,39.447 144.572,42.018 144.572,52.198L144.572,75.436L129.149,75.436L129.149,24.024L144.572,24.024L144.572,33.176C146.628,26.286 153.518,22.996 159.997,22.996Z" style="fill:#fff;fill-rule:nonzero;"/></g><g transform="matrix(2.16895,0,0,2.16895,64.7271,51.4846)"><path d="M188.432,38.831L188.432,57.031C188.432,61.452 192.237,61.863 199.024,61.452L199.024,75.436C178.871,77.492 173.01,71.426 173.01,57.031L173.01,38.831L164.785,38.831L164.785,24.024L173.01,24.024L173.01,14.256L188.432,9.628L188.432,24.024L199.024,24.024L199.024,38.831L188.432,38.831Z" style="fill:#fff;fill-rule:nonzero;"/></g><g transform="matrix(2.16895,0,0,2.16895,64.7271,51.4846)"><path d="M209.333,24.024L224.756,24.024L224.756,75.436L209.333,75.436L209.333,24.024ZM207.79,10.245C207.79,5.207 212.006,0.991 217.046,0.991C222.083,0.991 226.299,5.207 226.299,10.245C226.299,15.283 222.083,19.499 217.046,19.499C212.006,19.499 207.79,15.283 207.79,10.245Z" style="fill:#fff;fill-rule:nonzero;"/></g><g transform="matrix(2.16895,0,0,2.16895,64.7271,51.4846)"><path d="M233.475,49.73C233.475,34.41 245.096,22.584 260.725,22.584C270.699,22.584 279.54,27.829 283.962,35.746L270.492,43.56C268.745,39.961 265.042,37.802 260.518,37.802C253.835,37.802 248.9,42.636 248.9,49.73C248.9,56.824 253.835,61.657 260.518,61.657C265.042,61.657 268.846,59.498 270.492,55.899L283.962,63.612C279.54,71.631 270.8,76.875 260.725,76.875C245.096,76.875 233.475,65.05 233.475,49.73Z" style="fill:#fff;fill-rule:nonzero;"/></g><g transform="matrix(2.16895,0,0,2.16895,64.7271,51.4846)"><rect x="291.404" y="0.374" width="15.423" height="75.062" style="fill:#fff;fill-rule:nonzero;"/></g><g transform="matrix(2.16895,5.3124e-16,-5.3124e-16,2.16895,64.7271,51.4846)"><path d="M341.891,49.73C341.891,42.018 336.75,37.185 329.657,37.185C322.562,37.185 317.419,42.018 317.419,49.73C317.419,57.442 322.562,62.274 329.657,62.274C336.75,62.274 341.891,57.442 341.891,49.73Z" style="fill:#fff;fill-rule:nonzero;"/></g></g></svg>